<?xml version="1.0" encoding="UTF-8"?>
<svg version="1.1" xmlns="http://www.w3.org/2000/svg" width="200" height="200">
<path d="M0 0 C20.6244632 17.41026114 34.89724242 39.03622678 37.9375 66.3125 C39.34102504 92.85838738 34.2691629 117.86963056 16.43359375 138.5625 C15.60988281 139.47 14.78617188 140.3775 13.9375 141.3125 C13.49809082 141.80105469 13.05868164 142.28960937 12.60595703 142.79296875 C-3.49570605 160.48035862 -25.18034726 172.14258553 -49.42333984 173.4387207 C-76.21195349 174.23948112 -99.95250746 168.84345258 -120.375 150.8125 C-121.94583629 149.32123222 -123.50863353 147.82144176 -125.0625 146.3125 C-125.82046875 145.62800781 -126.5784375 144.94351563 -127.359375 144.23828125 C-142.95592278 129.69046686 -153.06433058 107.22477093 -154.18676758 85.95800781 C-155.06639438 57.18903698 -147.95725563 32.71111511 -128.15625 11.12109375 C-95.2190681 -23.85748072 -38.59305109 -29.71541633 0 0 Z " fill="#363636" transform="translate(158.0625,22.6875)"/>
<path d="M0 0 C9.0375532 5.57228713 13.15089508 14.97095546 15.5546875 24.9453125 C16 28 16 28 16 36 C-1.49 36 -18.98 36 -37 36 C-35.48415855 48.35452637 -35.48415855 48.35452637 -27.9375 56.3125 C-22.12709053 59.6503948 -16.56091738 59.60626199 -10 59 C-5.24731816 57.54401969 -1.49024509 55.42710239 1 51 C1.66 49.68 2.32 48.36 3 47 C6.63 47 10.26 47 14 47 C13.65699673 53.68856379 10.06697384 58.97042828 5.3984375 63.58203125 C-2.80041291 70.01288311 -12.9210444 70.93463999 -23 70 C-31.8859351 68.16976262 -38.91607678 63.52535527 -44 56 C-49.48993821 45.16365137 -52.03007569 32.84837745 -48.875 20.9375 C-45.23041783 10.38827363 -39.75585093 3.59043143 -30 -2 C-20.06024345 -6.01792008 -9.42414798 -4.84065386 0 0 Z " fill="#F7F7F7" transform="translate(80,67)"/>
<path d="M0 0 C5.1844044 -0.66830213 9.82861063 -0.91631543 15 0 C18.74245427 3.02960583 20.67793928 6.83308171 23 11 C24.5754616 13.4101126 26.22517937 15.76543404 27.875 18.125 C28.2570459 18.69307373 28.6390918 19.26114746 29.03271484 19.84643555 C31.04385548 22.92722628 31.04385548 22.92722628 34 25 C34.26876953 24.4323291 34.53753906 23.8646582 34.81445312 23.27978516 C36.05405293 20.8960572 37.45211984 18.7407358 38.96875 16.5234375 C39.53980469 15.688125 40.11085937 14.8528125 40.69921875 13.9921875 C41.29347656 13.12851563 41.88773438 12.26484375 42.5 11.375 C43.09425781 10.50359375 43.68851563 9.6321875 44.30078125 8.734375 C48.74203356 2.25796644 48.74203356 2.25796644 51 0 C54.2578125 -0.1953125 54.2578125 -0.1953125 58.125 -0.125 C60.04699219 -0.09792969 60.04699219 -0.09792969 62.0078125 -0.0703125 C63.48894531 -0.03550781 63.48894531 -0.03550781 65 0 C63.51391132 3.24613863 61.65835615 5.91443162 59.48046875 8.73828125 C58.78759766 9.64126953 58.09472656 10.54425781 57.38085938 11.47460938 C56.29514648 12.87936523 56.29514648 12.87936523 55.1875 14.3125 C53.07997838 17.04941722 50.97522319 19.78799132 48.88427734 22.53759766 C47.72139233 24.05727351 46.54251033 25.5650394 45.33837891 27.05224609 C42.6368048 30.35567838 42.6368048 30.35567838 42.21777344 34.43481445 C43.02831264 37.09284672 44.01239599 38.90935021 45.58984375 41.1875 C46.12246826 41.96270996 46.65509277 42.73791992 47.20385742 43.53662109 C47.77595947 44.34953613 48.34806152 45.16245117 48.9375 46 C49.51927002 46.83998535 50.10104004 47.6799707 50.70043945 48.54541016 C54.95591026 54.64295762 59.40850895 60.54770832 64.07421875 66.3359375 C65.90507897 68.86868937 66.90618915 71.09835024 68 74 C62.96135551 74.84903939 57.94587284 75.55026469 53 74 C48.47495653 70.0015395 45.725888 65.20125879 42.75 60 C41.53915501 57.99458305 40.31372421 55.99919462 39.0791626 54.00830078 C38.31961647 52.77226073 37.57653063 51.52592237 36.85198975 50.26904297 C35.76998922 48.38353971 35.76998922 48.38353971 34 46 C33.01 46 32.02 46 31 46 C29.4518378 47.92841592 28.12964322 49.79608155 26.8046875 51.87109375 C26.41177521 52.46801529 26.01886292 53.06493683 25.61404419 53.6799469 C24.35779962 55.59286406 23.11618761 57.51478669 21.875 59.4375 C20.62356412 61.3544657 19.36927526 63.26953912 18.11453247 65.18434143 C17.33397702 66.37789264 16.55597588 67.57311882 15.7807312 68.77012634 C13.10473499 72.89526501 13.10473499 72.89526501 12 74 C9.64686445 74.07271741 7.29166332 74.08370868 4.9375 74.0625 C3.00197266 74.04896484 3.00197266 74.04896484 1.02734375 74.03515625 C0.02832031 74.02355469 -0.97070312 74.01195312 -2 74 C-0.64483009 71.15917996 0.87784562 68.57861 2.65234375 65.98046875 C3.17691162 65.21234863 3.70147949 64.44422852 4.24194336 63.65283203 C4.80147705 62.83927246 5.36101074 62.02571289 5.9375 61.1875 C6.50927979 60.34815918 7.08105957 59.50881836 7.67016602 58.64404297 C10.4785519 54.54804378 13.33166219 50.51513942 16.375 46.58984375 C16.89199463 45.91735596 17.40898926 45.24486816 17.94165039 44.55200195 C18.91976271 43.29196595 19.91327947 42.04370019 20.92358398 40.80932617 C22.4324957 38.94539901 22.4324957 38.94539901 24 36 C23.25299476 31.61891521 20.22479274 28.48142507 17.5 25.0625 C13.72465427 20.26176033 10.05480373 15.4041174 6.5 10.4375 C6.07912109 9.85427979 5.65824219 9.27105957 5.22460938 8.67016602 C3.23182526 5.87464215 1.41064436 3.13561709 0 0 Z " fill="#F9F9F9" transform="translate(101,63)"/>
<path d="M0 0 C4.98159057 2.80352438 8.76275366 5.54963431 11.20703125 10.86328125 C11.70203125 14.82328125 11.70203125 14.82328125 12.20703125 18.86328125 C-0.99296875 18.86328125 -14.19296875 18.86328125 -27.79296875 18.86328125 C-26.76500773 9.61163203 -26.18750689 7.52663519 -19.79296875 1.86328125 C-13.97884174 -2.36517476 -6.58672411 -2.68075065 0 0 Z " fill="#3A3A3A" transform="translate(70.79296875,74.13671875)"/>
</svg>
