<?xml version="1.0" encoding="UTF-8"?>
<svg version="1.1" xmlns="http://www.w3.org/2000/svg" width="1200" height="1237">
<path d="M0 0 C1.28519531 -0.00570007 2.57039062 -0.01140015 3.89453125 -0.01727295 C6.60384502 -0.02767935 9.31313011 -0.03358633 12.02246094 -0.03710938 C14.72898174 -0.04144804 17.43517546 -0.05517939 20.14160156 -0.078125 C121.65068689 -0.87291109 216.84340005 34.94193185 289.34228516 106.25439453 C296.74676264 113.59606172 303.77967269 120.92131585 310.125 129.203125 C311.0190785 130.29937527 311.91643004 131.39296131 312.81640625 132.484375 C327.90575026 150.93492581 336.85469112 171.77036259 341.8125 195.015625 C342.11607422 196.41784302 342.11607422 196.41784302 342.42578125 197.84838867 C346.05060257 215.6296476 346.49616077 233.23786599 346.4375 251.328125 C346.43534485 252.52309601 346.4331897 253.71806702 346.43096924 254.94924927 C346.37625175 273.88703383 345.69927562 292.42070642 343.125 311.203125 C342.92941007 312.67948801 342.73410918 314.15588934 342.5390625 315.63232422 C332.14537723 393.32550467 309.34255053 469.60281544 280.125 542.203125 C279.63676758 543.41758301 279.14853516 544.63204102 278.64550781 545.88330078 C271.2508851 564.1895009 263.36710162 582.26426748 255.125 600.203125 C254.82142578 600.86483704 254.51785156 601.52654907 254.20507812 602.20831299 C240.8291496 631.34041096 226.57737758 659.96203712 210.54443359 687.73291016 C207.93514052 692.27381613 205.38948703 696.85057365 202.83789062 701.42407227 C201.34537386 704.08705545 199.81971009 706.66105987 198.125 709.203125 C204.72086172 709.3170779 211.07868601 708.93146596 217.625 708.140625 C218.67034912 708.01776123 219.71569824 707.89489746 220.79272461 707.76831055 C227.91990057 706.87596494 234.97010705 705.73157373 242.03515625 704.4453125 C301.07090282 693.71241408 301.07090282 693.71241408 327.125 710.203125 C339.13368857 718.98282652 347.62401302 730.66439233 351.125 745.203125 C351.67676564 749.98950532 351.74615151 754.7011289 351.6875 759.515625 C351.67581787 760.7958252 351.66413574 762.07602539 351.65209961 763.39501953 C351.43022283 772.89279661 350.4893116 780.63841961 346.125 789.203125 C345.81916992 789.81220703 345.51333984 790.42128906 345.19824219 791.04882812 C340.32667328 800.52212632 334.04017025 808.2280838 326.55664062 815.75244141 C325.25701535 817.06935365 323.99343256 818.42159386 322.734375 819.77734375 C276.30713845 868.81019051 202.7567365 888.1785928 137.36181641 890.14892578 C133.51193631 890.24221037 129.66348426 890.30708813 125.8125 890.328125 C125.14412109 890.33287842 124.47574219 890.33763184 123.78710938 890.3425293 C116.88035757 890.32005072 110.00767798 889.73823447 103.125 889.203125 C102.82862318 893.43197437 102.53818297 897.66120947 102.25 901.890625 C102.20454041 902.5555899 102.15908081 903.22055481 102.11224365 903.90567017 C101.5681966 911.90814005 101.07151622 919.91001984 100.6875 927.921875 C96.63779602 1011.92989014 88.94262092 1110.18457666 28.125 1174.203125 C27.62516602 1174.73550781 27.12533203 1175.26789063 26.61035156 1175.81640625 C-3.14939725 1207.3371922 -42.91660849 1222.28715741 -84.4375 1231.578125 C-85.18764374 1231.74747559 -85.93778748 1231.91682617 -86.71066284 1232.09130859 C-102.89477535 1235.71493851 -118.65832869 1237.59821453 -135.25 1237.515625 C-136.01536072 1237.51380219 -136.78072144 1237.51197937 -137.5692749 1237.51010132 C-148.9236317 1237.46464836 -159.82765952 1236.9902465 -170.875 1234.203125 C-171.91116455 1233.95369141 -171.91116455 1233.95369141 -172.96826172 1233.69921875 C-205.92970444 1225.62519785 -233.07394042 1204.62170337 -250.73046875 1175.79296875 C-251.44742224 1174.59761702 -252.16231578 1173.40102702 -252.875 1172.203125 C-253.85919922 1170.56537109 -253.85919922 1170.56537109 -254.86328125 1168.89453125 C-296.36138465 1095.62834069 -293.56010019 1004.76065284 -295.875 923.203125 C-296.82802002 923.59927002 -297.78104004 923.99541504 -298.76293945 924.40356445 C-306.42891904 927.55403618 -314.00802038 930.37155601 -322.0625 932.390625 C-323.03300293 932.6383667 -324.00350586 932.8861084 -325.00341797 933.14135742 C-334.53873695 935.49764414 -344.12325263 937.07567747 -353.875 938.203125 C-355.57269531 938.40035156 -355.57269531 938.40035156 -357.3046875 938.6015625 C-401.98181701 942.80780625 -456.12358924 935.40735057 -492.4375 907.078125 C-496.47494799 903.67601146 -500.25197381 900.04209315 -503.875 896.203125 C-507.72415788 897.55682528 -510.49608722 899.30514986 -513.6875 901.828125 C-536.38860078 918.580809 -565.36420462 925.57038843 -593.21484375 921.515625 C-620.0443601 916.90704546 -642.56890369 902.89449983 -661.875 884.203125 C-662.37241699 883.73148926 -662.86983398 883.25985352 -663.38232422 882.77392578 C-670.82765579 875.71126464 -677.36285025 868.22465762 -683.51611328 860.01513672 C-684.87311764 858.20563503 -686.24651652 856.40945405 -687.62109375 854.61328125 C-694.73282876 845.22089944 -700.93062578 835.36748169 -706.875 825.203125 C-707.45048584 824.21989258 -707.45048584 824.21989258 -708.03759766 823.21679688 C-734.47107686 777.74235096 -753.92665669 728.87344914 -770.875 679.203125 C-771.16870483 678.3426355 -771.46240967 677.482146 -771.76501465 676.59558105 C-804.59492758 580.14039766 -830.43561861 478.79842794 -848.0625 315.453125 C-848.06189575 314.31728973 -848.0612915 313.18145447 -848.06066895 312.01119995 C-848.03655935 295.33103272 -847.84115202 278.7871899 -845.875 262.203125 C-845.74609375 261.09710938 -845.6171875 259.99109375 -845.484375 258.8515625 C-839.49891374 209.3052443 -825.64186009 159.03822602 -795.875 118.203125 C-795.47071777 117.6447998 -795.06643555 117.08647461 -794.64990234 116.51123047 C-789.33935892 109.23896431 -783.58925391 102.5111731 -777.41796875 95.95703125 C-775.62860192 94.01923768 -773.9360855 92.09085316 -772.26953125 90.0546875 C-770.37808025 87.80222546 -768.6044219 85.90556674 -766.375 84.015625 C-765.6840625 83.42910156 -764.993125 82.84257813 -764.28125 82.23828125 C-763.4871875 81.56667969 -762.693125 80.89507812 -761.875 80.203125 C-760.9365625 79.37683594 -759.998125 78.55054687 -759.03125 77.69921875 C-715.89886184 39.94985088 -659.30526697 21.78894232 -602.875 17.203125 C-601.57820312 17.09226562 -600.28140625 16.98140625 -598.9453125 16.8671875 C-525.84436017 11.39406008 -450.61055392 25.45382231 -381.40649414 48.43798828 C-376.41125876 50.13020878 -376.41125876 50.13020878 -371.37744141 49.26611328 C-370.50265137 48.77353027 -369.62786133 48.28094727 -368.7265625 47.7734375 C-367.73325928 47.22961426 -366.73995605 46.68579102 -365.71655273 46.12548828 C-364.65509033 45.5323584 -363.59362793 44.93922852 -362.5 44.328125 C-335.26379728 29.6769263 -306.33438381 21.12935792 -275.875 16.203125 C-274.90546387 16.03796387 -273.93592773 15.87280273 -272.93701172 15.70263672 C-230.29368736 8.70754009 -183.31708717 11.6230947 -140.82226562 19.10839844 C-133.91798114 20.25054109 -128.60505023 20.05313691 -121.875 18.203125 C-120.45417114 17.84118042 -120.45417114 17.84118042 -119.00463867 17.47192383 C-116.90784678 16.93634927 -114.81302081 16.39303356 -112.7199707 15.84301758 C-89.82402568 9.86352918 -66.67387107 5.7279793 -43.1875 2.890625 C-42.17715195 2.76852158 -42.17715195 2.76852158 -41.14639282 2.64395142 C-27.44169283 1.01127065 -13.8070329 0.04931751 0 0 Z " fill="#FDFDFD" transform="translate(848.875,-0.203125)"/>
<path d="M0 0 C13.00483576 11.9313606 25.18841581 24.59250473 36.1015625 38.4765625 C36.92527344 39.49363281 37.74898437 40.51070312 38.59765625 41.55859375 C62.07514229 70.68502571 81.48762627 103.43422858 95.9765625 137.9140625 C96.39977783 138.92090088 96.82299316 139.92773926 97.2590332 140.96508789 C100.1015625 147.95254393 100.1015625 147.95254393 100.1015625 152.4765625 C99.48785294 152.46990067 98.87414337 152.46323883 98.24183655 152.45637512 C91.76747967 152.3892301 85.293224 152.34443908 78.81860352 152.31176758 C76.41263807 152.2968197 74.0066992 152.27645402 71.60083008 152.25024414 C57.73601306 152.10314498 44.64722857 152.32483897 31.1015625 155.4765625 C29.64627531 155.80154731 28.19086907 156.12599946 26.73535156 156.44995117 C3.86414139 161.56898704 -17.47546214 173.17065653 -30.5859375 193.1015625 C-48.72595365 221.77839233 -46.94613851 255.36784402 -40.8984375 287.4765625 C-40.7324707 288.37084961 -40.56650391 289.26513672 -40.39550781 290.18652344 C-31.39877666 336.75044336 -8.78708143 382.8691273 13.8515625 424.18847656 C15.29275164 426.82652825 16.71307104 429.4753457 18.1328125 432.125 C23.60493398 442.31361608 29.18550803 452.4298931 34.9140625 462.4765625 C40.70519738 472.65383174 46.1497015 482.93060947 50.9765625 493.6015625 C59.22035552 511.76684745 69.95303918 527.40703941 82.23486328 543.08984375 C84.8801174 546.47200492 87.48991084 549.88094628 90.1015625 553.2890625 C91.43436575 555.01863777 92.7674539 556.74799391 94.1015625 558.4765625 C91.43177634 560.25641994 88.99958968 561.32363131 86.01220703 562.42895508 C69.8504874 568.45010551 57.58037345 578.69880991 50.1015625 594.4765625 C48.4251374 598.74578654 47.19540801 603.02486565 46.1015625 607.4765625 C45.67037109 609.12205078 45.67037109 609.12205078 45.23046875 610.80078125 C43.32686863 619.22580572 42.93247962 627.35540115 42.7890625 635.9765625 C42.30209207 660.58619009 38.92945529 685.05085742 36.1015625 709.4765625 C35.90439636 711.18643341 35.90439636 711.18643341 35.70324707 712.93084717 C32.72404781 738.74482036 29.51770065 764.52205439 25.95834351 790.26243591 C24.9637829 797.45596513 23.99836669 804.65324205 23.0390625 811.8515625 C22.87849365 813.05159912 22.7179248 814.25163574 22.55249023 815.48803711 C21.70240894 821.8655837 20.8734446 828.24531114 20.0703125 834.62890625 C16.86301535 860.08462977 16.86301535 860.08462977 14.54199219 872.11669922 C14.00314539 875.00389052 13.51041302 877.89790526 13.015625 880.79296875 C7.91568512 910.18981164 0.42499116 938.50926477 -20.8984375 960.4765625 C-21.81689453 961.50523437 -21.81689453 961.50523437 -22.75390625 962.5546875 C-41.94623313 983.34296481 -74.24901291 991.8619953 -100.8984375 997.4765625 C-101.63175293 997.64172363 -102.36506836 997.80688477 -103.12060547 997.97705078 C-129.48594563 1003.85560368 -156.5118687 1002.46759806 -179.8984375 988.4765625 C-197.54987062 977.16154127 -207.91802784 961.01114201 -216.8984375 942.4765625 C-217.22473145 941.82413574 -217.55102539 941.17170898 -217.88720703 940.49951172 C-226.38982269 923.24586979 -228.79892061 903.51524953 -230.44926453 884.52478027 C-230.73592725 881.2629193 -231.03853072 878.00329514 -231.35801697 874.74449158 C-232.81132941 859.73902748 -233.78613377 844.72462297 -234.52734375 829.66796875 C-234.56025867 829.00242328 -234.59317358 828.33687781 -234.62708592 827.65116429 C-235.89247738 801.80889142 -236.12859244 775.9986749 -236.05078125 750.12890625 C-236.04814412 749.19913483 -236.04550698 748.26936341 -236.04278994 747.3114171 C-235.99482176 731.04367638 -235.90174302 714.77620057 -235.79864502 698.50872803 C-235.73162126 687.85872365 -235.6741118 677.20883758 -235.64409453 666.55865675 C-235.6278283 661.15173935 -235.59302911 655.74539253 -235.54291713 650.33868778 C-235.51606012 646.99360717 -235.50624461 643.64862715 -235.50088692 640.30344963 C-235.49506335 638.77288504 -235.48244612 637.24232633 -235.46199036 635.71188736 C-235.29013547 622.3825398 -237.37533266 609.99097224 -243.7109375 598.1015625 C-244.05278076 597.43874268 -244.39462402 596.77592285 -244.74682617 596.09301758 C-247.92532361 590.09766573 -251.64328126 584.55212391 -256.59765625 579.87109375 C-257.8984375 578.4765625 -257.8984375 578.4765625 -257.8984375 576.4765625 C-258.4759375 576.20457031 -259.0534375 575.93257812 -259.6484375 575.65234375 C-261.89500338 574.47835707 -263.84092413 573.14095183 -265.8984375 571.6640625 C-271.24786846 568.06263936 -276.87638058 565.72586058 -282.8984375 563.4765625 C-283.67574219 563.15429688 -284.45304688 562.83203125 -285.25390625 562.5 C-293.49475582 559.46464405 -302.25416812 560.22231928 -310.8984375 560.4765625 C-309.90557358 553.66889759 -307.70702153 547.35250553 -305.5234375 540.8515625 C-305.3019101 540.19007202 -305.08038269 539.52858154 -304.85214233 538.8470459 C-298.0500709 518.60710513 -290.06366824 498.95180396 -281.3359375 479.4765625 C-272.20395952 459.09483864 -264.08778856 438.24579 -258.8984375 416.4765625 C-258.72119141 415.75823242 -258.54394531 415.03990234 -258.36132812 414.29980469 C-249.21686716 376.48399226 -249.04178494 334.10881276 -254.4453125 295.73095703 C-254.91508197 292.35702003 -255.33222776 288.97934962 -255.7421875 285.59765625 C-257.46022103 271.83915803 -259.74726066 258.21875056 -262.3359375 244.6015625 C-262.47519653 243.85342285 -262.61445557 243.1052832 -262.75793457 242.33447266 C-265.23878964 229.1003261 -268.52889019 216.1302445 -274.7734375 204.1015625 C-275.11366943 203.43511719 -275.45390137 202.76867187 -275.80444336 202.08203125 C-278.61919178 196.71537502 -281.91095665 192.04420799 -285.8984375 187.4765625 C-286.40503906 186.8165625 -286.91164063 186.1565625 -287.43359375 185.4765625 C-300.39019752 169.17734596 -322.89369628 160.99045327 -342.8984375 158.4765625 C-347.4445126 158.21171326 -351.97066445 158.18940986 -356.5234375 158.2265625 C-357.75545898 158.23478027 -358.98748047 158.24299805 -360.25683594 158.25146484 C-393.23059809 158.6531625 -423.24555323 168.6158765 -452.8984375 182.4765625 C-454.27938785 183.11319545 -455.66086383 183.74869 -457.04296875 184.3828125 C-459.99815777 185.74034245 -462.94930282 187.10596048 -465.8984375 188.4765625 C-466.24422452 178.75610527 -465.20726446 169.38193596 -463.8359375 159.7890625 C-463.72717285 159.01387268 -463.6184082 158.23868286 -463.50634766 157.44000244 C-460.26779714 134.54057624 -455.83090835 111.56395929 -448.8984375 89.4765625 C-448.6298291 88.60402832 -448.3612207 87.73149414 -448.08447266 86.83251953 C-436.76236014 50.35570806 -420.55652978 14.9208277 -395.8984375 -14.5234375 C-395.39248047 -15.1309082 -394.88652344 -15.73837891 -394.36523438 -16.36425781 C-385.59164538 -26.86103622 -376.64431948 -35.99651037 -365.8984375 -44.5234375 C-364.88523437 -45.34199219 -363.87203125 -46.16054687 -362.828125 -47.00390625 C-294.95780432 -101.17601619 -195.35513771 -97.72751993 0 0 Z " fill="#336791" transform="translate(851.8984375,169.5234375)"/>
<path d="M0 0 C3.92612966 0.02907158 7.85090668 0.02051319 11.77709961 0.00756836 C36.54692431 0.02544022 60.67272157 2.67000727 84.98608398 7.27905273 C86.89296513 7.63381464 88.79986648 7.98846795 90.70678711 8.34301758 C111.76064383 12.29019501 132.42914254 16.9954266 152.86108398 23.46655273 C154.45712482 23.96365363 156.05347719 24.4597554 157.65014648 24.95483398 C161.39012533 26.11602742 165.1266063 27.28779302 168.86108398 28.46655273 C168.86108398 32.72048717 166.36673318 34.40090644 163.54858398 37.27905273 C157.16835759 44.00323683 151.40467253 51.0422762 145.86108398 58.46655273 C145.14202881 59.42489014 145.14202881 59.42489014 144.40844727 60.40258789 C103.17754879 115.79853622 84.64904645 184.68406413 76.11108398 252.21655273 C76.00399109 253.05786743 75.89689819 253.89918213 75.78656006 254.76599121 C73.64252251 271.76440334 72.69026686 288.5642827 72.73071289 305.69628906 C72.73612574 308.42510405 72.7307028 311.15375798 72.72436523 313.88256836 C72.72502533 315.64884476 72.72630508 317.41512106 72.72827148 319.18139648 C72.72523514 320.38166725 72.72523514 320.38166725 72.72213745 321.60618591 C72.74084514 326.16730498 73.05862353 330.58832103 73.60827637 335.11433411 C74.08280314 339.52951244 74.23556184 343.9607744 74.41186523 348.39624023 C74.45370438 349.43505341 74.49554352 350.47386658 74.53865051 351.54415894 C74.98663669 363.55854308 75.05933782 375.56996132 75.04858398 387.59155273 C75.04817612 389.32536697 75.04817612 389.32536697 75.04776001 391.09420776 C75.02849768 408.96980787 74.61471163 426.6662066 72.86108398 444.46655273 C72.73797852 445.73354004 72.61487305 447.00052734 72.48803711 448.3059082 C70.37135689 469.70701951 70.37135689 469.70701951 69.33325195 475.32104492 C68.7752864 479.03812256 68.66248062 482.70081538 68.62280273 486.45092773 C68.61287292 487.21529648 68.60294312 487.97966522 68.5927124 488.76719666 C68.06368134 540.23821452 82.16307589 585.25169979 117.17358398 623.52905273 C117.89263916 624.31542114 117.89263916 624.31542114 118.6262207 625.11767578 C121.82446937 628.53899371 125.21270769 631.52952898 128.86108398 634.46655273 C125.44191468 639.28845817 121.86544107 643.59885183 117.62280273 647.71264648 C115.90422902 649.42359902 114.31683411 651.19069888 112.73608398 653.02905273 C109.37269393 656.93271585 105.87690451 660.70087946 102.36108398 664.46655273 C98.3450322 668.77189159 94.36979153 673.09622945 90.52514648 677.55639648 C88.54568273 679.82859784 86.51525228 682.05115146 84.48608398 684.27905273 C81.37579548 687.72033478 78.39630087 691.22976571 75.48608398 694.84155273 C72.24155667 698.85481823 68.87359074 702.690684 65.36108398 706.46655273 C61.13109574 711.0182214 57.14100147 715.71244663 53.23999023 720.54858398 C45.73564521 729.75342098 37.93489937 738.75804985 29.86108398 747.46655273 C29.1456543 748.24772461 28.43022461 749.02889648 27.69311523 749.83374023 C18.612922 759.37999649 7.0061455 767.28446964 -6.51391602 768.02905273 C-23.38143406 767.28419083 -36.88554239 754.9424507 -48.13891602 743.46655273 C-91.79873689 695.27064658 -113.88255849 628.18036248 -135.0960083 567.87805176 C-135.73561357 566.06017597 -136.37677651 564.24284727 -137.01971436 562.42614746 C-140.7195735 551.95160433 -144.09331313 541.44717392 -147.07833862 530.74584961 C-148.63745254 525.1624301 -150.36338342 519.67047673 -152.24487305 514.1862793 C-153.90620404 509.13242149 -155.22620012 503.98553071 -156.57641602 498.84155273 C-158.52553725 491.47616754 -160.50451065 484.12127936 -162.55297852 476.78295898 C-165.1275132 467.54920191 -167.62855222 458.29717723 -170.07641602 449.02905273 C-170.29335114 448.20783936 -170.51028625 447.38662598 -170.73379517 446.54052734 C-174.01857351 434.06899433 -177.0206136 421.56640838 -179.72485352 408.95483398 C-180.67305311 404.54123824 -181.68056205 400.14762617 -182.74047852 395.75952148 C-190.09648304 365.30043426 -195.96191457 334.51207263 -201.01391602 303.59155273 C-201.15321533 302.74436676 -201.29251465 301.89718079 -201.43603516 301.02432251 C-202.2494625 296.04755645 -203.02282344 291.06639602 -203.75421143 286.0769043 C-204.01623414 284.29899101 -204.28451195 282.52199091 -204.55828857 280.74584961 C-206.98166157 264.84680781 -207.60833468 249.20476178 -207.5300293 233.13208008 C-207.51398822 229.23409741 -207.52995745 225.33716 -207.54907227 221.43920898 C-207.59797694 159.28576519 -193.36636863 95.47187724 -148.61938477 49.91967773 C-128.94039103 30.60414826 -102.44472057 17.1016521 -76.13891602 9.46655273 C-75.43702148 9.25933594 -74.73512695 9.05211914 -74.01196289 8.83862305 C-49.78841268 1.83435065 -25.10975255 -0.20182928 0 0 Z " fill="#336791" transform="translate(277.138916015625,83.533447265625)"/>
<path d="M0 0 C1.28519531 -0.00570007 2.57039062 -0.01140015 3.89453125 -0.01727295 C6.60384502 -0.02767935 9.31313011 -0.03358633 12.02246094 -0.03710938 C14.72898174 -0.04144804 17.43517546 -0.05517939 20.14160156 -0.078125 C121.65068689 -0.87291109 216.84340005 34.94193185 289.34228516 106.25439453 C296.74676264 113.59606172 303.77967269 120.92131585 310.125 129.203125 C311.0190785 130.29937527 311.91643004 131.39296131 312.81640625 132.484375 C327.90575026 150.93492581 336.85469112 171.77036259 341.8125 195.015625 C342.11607422 196.41784302 342.11607422 196.41784302 342.42578125 197.84838867 C346.05060257 215.6296476 346.49616077 233.23786599 346.4375 251.328125 C346.43534485 252.52309601 346.4331897 253.71806702 346.43096924 254.94924927 C346.37625175 273.88703383 345.69927562 292.42070642 343.125 311.203125 C342.92941007 312.67948801 342.73410918 314.15588934 342.5390625 315.63232422 C332.14537723 393.32550467 309.34255053 469.60281544 280.125 542.203125 C279.63676758 543.41758301 279.14853516 544.63204102 278.64550781 545.88330078 C271.2508851 564.1895009 263.36710162 582.26426748 255.125 600.203125 C254.82142578 600.86483704 254.51785156 601.52654907 254.20507812 602.20831299 C240.8291496 631.34041096 226.57737758 659.96203712 210.54443359 687.73291016 C207.93514052 692.27381613 205.38948703 696.85057365 202.83789062 701.42407227 C201.34537386 704.08705545 199.81971009 706.66105987 198.125 709.203125 C204.72086172 709.3170779 211.07868601 708.93146596 217.625 708.140625 C218.67034912 708.01776123 219.71569824 707.89489746 220.79272461 707.76831055 C227.91990057 706.87596494 234.97010705 705.73157373 242.03515625 704.4453125 C301.07090282 693.71241408 301.07090282 693.71241408 327.125 710.203125 C339.13368857 718.98282652 347.62401302 730.66439233 351.125 745.203125 C351.67676564 749.98950532 351.74615151 754.7011289 351.6875 759.515625 C351.67581787 760.7958252 351.66413574 762.07602539 351.65209961 763.39501953 C351.43022283 772.89279661 350.4893116 780.63841961 346.125 789.203125 C345.81916992 789.81220703 345.51333984 790.42128906 345.19824219 791.04882812 C340.32667328 800.52212632 334.04017025 808.2280838 326.55664062 815.75244141 C325.25701535 817.06935365 323.99343256 818.42159386 322.734375 819.77734375 C276.30713845 868.81019051 202.7567365 888.1785928 137.36181641 890.14892578 C133.51193631 890.24221037 129.66348426 890.30708813 125.8125 890.328125 C125.14412109 890.33287842 124.47574219 890.33763184 123.78710938 890.3425293 C116.88035757 890.32005072 110.00767798 889.73823447 103.125 889.203125 C102.82862318 893.43197437 102.53818297 897.66120947 102.25 901.890625 C102.20454041 902.5555899 102.15908081 903.22055481 102.11224365 903.90567017 C101.5681966 911.90814005 101.07151622 919.91001984 100.6875 927.921875 C96.63779602 1011.92989014 88.94262092 1110.18457666 28.125 1174.203125 C27.62516602 1174.73550781 27.12533203 1175.26789063 26.61035156 1175.81640625 C-3.14939725 1207.3371922 -42.91660849 1222.28715741 -84.4375 1231.578125 C-85.18764374 1231.74747559 -85.93778748 1231.91682617 -86.71066284 1232.09130859 C-102.89477535 1235.71493851 -118.65832869 1237.59821453 -135.25 1237.515625 C-136.01536072 1237.51380219 -136.78072144 1237.51197937 -137.5692749 1237.51010132 C-148.9236317 1237.46464836 -159.82765952 1236.9902465 -170.875 1234.203125 C-171.91116455 1233.95369141 -171.91116455 1233.95369141 -172.96826172 1233.69921875 C-205.92970444 1225.62519785 -233.07394042 1204.62170337 -250.73046875 1175.79296875 C-251.44742224 1174.59761702 -252.16231578 1173.40102702 -252.875 1172.203125 C-253.85919922 1170.56537109 -253.85919922 1170.56537109 -254.86328125 1168.89453125 C-296.36138465 1095.62834069 -293.56010019 1004.76065284 -295.875 923.203125 C-296.82802002 923.59927002 -297.78104004 923.99541504 -298.76293945 924.40356445 C-306.42891904 927.55403618 -314.00802038 930.37155601 -322.0625 932.390625 C-323.03300293 932.6383667 -324.00350586 932.8861084 -325.00341797 933.14135742 C-334.53873695 935.49764414 -344.12325263 937.07567747 -353.875 938.203125 C-355.57269531 938.40035156 -355.57269531 938.40035156 -357.3046875 938.6015625 C-401.98181701 942.80780625 -456.12358924 935.40735057 -492.4375 907.078125 C-496.47494799 903.67601146 -500.25197381 900.04209315 -503.875 896.203125 C-507.72415788 897.55682528 -510.49608722 899.30514986 -513.6875 901.828125 C-536.38860078 918.580809 -565.36420462 925.57038843 -593.21484375 921.515625 C-620.0443601 916.90704546 -642.56890369 902.89449983 -661.875 884.203125 C-662.37241699 883.73148926 -662.86983398 883.25985352 -663.38232422 882.77392578 C-670.82765579 875.71126464 -677.36285025 868.22465762 -683.51611328 860.01513672 C-684.87311764 858.20563503 -686.24651652 856.40945405 -687.62109375 854.61328125 C-694.73282876 845.22089944 -700.93062578 835.36748169 -706.875 825.203125 C-707.45048584 824.21989258 -707.45048584 824.21989258 -708.03759766 823.21679688 C-734.47107686 777.74235096 -753.92665669 728.87344914 -770.875 679.203125 C-771.16870483 678.3426355 -771.46240967 677.482146 -771.76501465 676.59558105 C-804.59492758 580.14039766 -830.43561861 478.79842794 -848.0625 315.453125 C-848.06189575 314.31728973 -848.0612915 313.18145447 -848.06066895 312.01119995 C-848.03655935 295.33103272 -847.84115202 278.7871899 -845.875 262.203125 C-845.74609375 261.09710938 -845.6171875 259.99109375 -845.484375 258.8515625 C-839.49891374 209.3052443 -825.64186009 159.03822602 -795.875 118.203125 C-795.47071777 117.6447998 -795.06643555 117.08647461 -794.64990234 116.51123047 C-789.33935892 109.23896431 -783.58925391 102.5111731 -777.41796875 95.95703125 C-775.62860192 94.01923768 -773.9360855 92.09085316 -772.26953125 90.0546875 C-770.37808025 87.80222546 -768.6044219 85.90556674 -766.375 84.015625 C-765.6840625 83.42910156 -764.993125 82.84257813 -764.28125 82.23828125 C-763.4871875 81.56667969 -762.693125 80.89507812 -761.875 80.203125 C-760.9365625 79.37683594 -759.998125 78.55054687 -759.03125 77.69921875 C-715.89886184 39.94985088 -659.30526697 21.78894232 -602.875 17.203125 C-601.57820312 17.09226562 -600.28140625 16.98140625 -598.9453125 16.8671875 C-525.84436017 11.39406008 -450.61055392 25.45382231 -381.40649414 48.43798828 C-376.41125876 50.13020878 -376.41125876 50.13020878 -371.37744141 49.26611328 C-370.50265137 48.77353027 -369.62786133 48.28094727 -368.7265625 47.7734375 C-367.73325928 47.22961426 -366.73995605 46.68579102 -365.71655273 46.12548828 C-364.65509033 45.5323584 -363.59362793 44.93922852 -362.5 44.328125 C-335.26379728 29.6769263 -306.33438381 21.12935792 -275.875 16.203125 C-274.90546387 16.03796387 -273.93592773 15.87280273 -272.93701172 15.70263672 C-230.29368736 8.70754009 -183.31708717 11.6230947 -140.82226562 19.10839844 C-133.91798114 20.25054109 -128.60505023 20.05313691 -121.875 18.203125 C-120.45417114 17.84118042 -120.45417114 17.84118042 -119.00463867 17.47192383 C-116.90784678 16.93634927 -114.81302081 16.39303356 -112.7199707 15.84301758 C-89.82402568 9.86352918 -66.67387107 5.7279793 -43.1875 2.890625 C-42.17715195 2.76852158 -42.17715195 2.76852158 -41.14639282 2.64395142 C-27.44169283 1.01127065 -13.8070329 0.04931751 0 0 Z M-100.875 47.203125 C-102.20893799 47.51080811 -102.20893799 47.51080811 -103.56982422 47.82470703 C-109.41631018 49.17464926 -115.20900594 50.58387021 -120.87109375 52.58984375 C-121.54197021 52.82622559 -122.21284668 53.06260742 -122.90405273 53.30615234 C-124.73548997 53.96540623 -126.55581479 54.65531009 -128.375 55.34765625 C-134.98360806 56.96292987 -142.15602506 54.84862726 -148.78125 53.64453125 C-218.43108998 41.20854771 -300.48534198 39.33087877 -361.44140625 81.59375 C-363.12461388 82.78299823 -364.78625311 84.00517748 -366.3984375 85.2890625 C-373.37799557 87.8651139 -383.68307112 82.35011242 -390.34494019 80.06433105 C-401.358769 76.29312008 -412.38164882 72.70322861 -423.65625 69.78613281 C-426.05912263 69.15474419 -428.45098101 68.48893411 -430.84375 67.8203125 C-456.64653168 60.71478979 -483.32361723 55.51869007 -509.875 52.203125 C-511.06593262 52.05359375 -512.25686523 51.9040625 -513.48388672 51.75 C-561.63418833 45.99849017 -611.06069482 46.9072254 -657.875 60.203125 C-658.81408203 60.46432129 -659.75316406 60.72551758 -660.72070312 60.99462891 C-681.56849697 66.92336326 -702.27178654 76.51188966 -719.875 89.203125 C-720.91269531 89.94046875 -721.95039062 90.6778125 -723.01953125 91.4375 C-728.81227032 95.66364926 -734.24485607 100.15952941 -739.5078125 105.02734375 C-741.03859299 106.43434826 -742.59482305 107.81436457 -744.1796875 109.16015625 C-750.20359915 114.27735455 -755.0232335 119.98038557 -759.875 126.203125 C-760.66777344 127.18023437 -761.46054687 128.15734375 -762.27734375 129.1640625 C-785.35865479 158.11597556 -798.21140403 192.32202885 -806.18798828 228.12402344 C-806.73019481 230.55412606 -807.29220622 232.97695532 -807.87109375 235.3984375 C-810.71914551 248.11875159 -811.67780383 261.24377616 -812.875 274.203125 C-812.95898544 275.08521133 -813.04297089 275.96729767 -813.12950134 276.87611389 C-813.77162725 283.98532108 -814.06066631 291.03930488 -814.11328125 298.17578125 C-814.12321106 299.28406784 -814.13314087 300.39235443 -814.14337158 301.53422546 C-814.32227926 326.72690989 -813.98081076 351.32805571 -809.875 376.203125 C-809.71992981 377.14671875 -809.56485962 378.0903125 -809.40509033 379.0625 C-806.90030268 394.21747714 -804.18971647 409.33258033 -801.3873291 424.43505859 C-800.92821536 426.91560734 -800.47383836 429.3969402 -800.02246094 431.87890625 C-795.15456945 458.61287567 -788.83995236 485.02905336 -782.47851562 511.44018555 C-781.18502819 516.8257453 -779.98695099 522.22801214 -778.8125 527.640625 C-777.4254178 534.00370964 -775.77811271 540.23698438 -773.9296875 546.484375 C-772.6985439 550.82529615 -771.62932616 555.19457193 -770.5625 559.578125 C-767.9322838 570.3048148 -764.83510956 580.88128059 -761.6875 591.46582031 C-760.78200432 594.51642654 -759.89004849 597.57081764 -759.00012207 600.62599182 C-753.31075413 620.09924511 -747.28292809 639.45435212 -740.875 658.703125 C-740.5101651 659.79964386 -740.1453302 660.89616272 -739.7694397 662.02590942 C-718.53405118 725.65391284 -693.52978309 794.97706948 -648.875 846.203125 C-648.42157227 846.72358398 -647.96814453 847.24404297 -647.50097656 847.78027344 C-632.65926601 864.68415887 -611.03798612 883.59088718 -587.41699219 885.39038086 C-584.75401256 885.47063025 -582.10151418 885.47617343 -579.4375 885.453125 C-578.54740234 885.46085938 -577.65730469 885.46859375 -576.74023438 885.4765625 C-551.35049725 885.40237773 -531.77056535 870.42538814 -514.64624023 853.21362305 C-510.19106385 848.66269362 -506.0185906 843.9848642 -502.078125 838.9765625 C-499.42910285 835.64180058 -496.66010734 832.42428669 -493.875 829.203125 C-490.28702644 825.04537292 -486.75800582 820.85572972 -483.3125 816.578125 C-479.21198767 811.52504356 -474.85915243 806.75003152 -470.4375 801.98046875 C-467.77633655 799.09618947 -465.18800992 796.15975367 -462.6171875 793.1953125 C-459.80036738 789.97428501 -456.92189854 786.80894864 -454.0546875 783.6328125 C-452.18354906 781.5470632 -450.33575169 779.44494872 -448.5 777.328125 C-445.08953061 773.41240089 -441.58033722 769.5896997 -438.06518555 765.76831055 C-435.12916345 762.5753677 -432.21116324 759.3676324 -429.3125 756.140625 C-428.23548828 754.95339844 -428.23548828 754.95339844 -427.13671875 753.7421875 C-425.48049184 751.88286541 -423.86690664 750.00994693 -422.26953125 748.1015625 C-421.82875244 747.58730713 -421.38797363 747.07305176 -420.93383789 746.54321289 C-419.68989625 745.09136755 -418.46167423 743.626097 -417.234375 742.16015625 C-414.875 740.203125 -414.875 740.203125 -412.5859375 740.16796875 C-408.88107365 741.58265019 -405.32939318 743.24965077 -401.75 744.953125 C-393.00524812 748.98097792 -384.2129133 751.60591847 -374.84423828 753.75097656 C-373.25408459 754.116085 -371.6706855 754.51053768 -370.08984375 754.9140625 C-361.86915771 756.85995388 -353.28290889 756.8550852 -344.875 757.203125 C-346.45422485 759.24048675 -348.03629154 761.27556465 -349.62109375 763.30859375 C-351.24277835 765.39120776 -352.85929342 767.47737649 -354.47265625 769.56640625 C-373.94878589 794.7051686 -393.49444824 801.84317546 -424.125 808.265625 C-457.38886105 815.22896 -457.38886105 815.22896 -483.3203125 836.03125 C-487.55875993 842.84833327 -486.80940147 852.0138597 -485.4375 859.6328125 C-481.04733957 873.29718685 -467.66957978 881.12965953 -455.68310547 887.40771484 C-441.22290659 894.67209726 -425.66732155 897.35035413 -409.875 900.203125 C-408.58078125 900.45320312 -407.2865625 900.70328125 -405.953125 900.9609375 C-366.82718864 907.48192689 -324.28246621 899.12808567 -290.375 878.828125 C-289.37194824 878.23221558 -289.37194824 878.23221558 -288.34863281 877.62426758 C-283.58742082 874.63894359 -279.35716712 871.14905172 -275.09570312 867.50537109 C-274.49582581 866.99499802 -273.89594849 866.48462494 -273.27789307 865.95878601 C-271.80886452 864.70853923 -270.34173871 863.45605734 -268.875 862.203125 C-268.86230418 863.11194239 -268.86230418 863.11194239 -268.84935188 864.03911972 C-268.64021086 878.97309935 -268.42262873 893.90693584 -268.19632149 908.84066391 C-268.08705991 916.06332125 -267.98041485 923.28599769 -267.88037109 930.50878906 C-267.28449673 976.3891919 -267.28449673 976.3891919 -264.875 1022.203125 C-264.80476624 1023.18877441 -264.73453247 1024.17442383 -264.66217041 1025.18994141 C-264.28511514 1030.40815251 -263.85187212 1035.61811918 -263.375 1040.828125 C-263.24318985 1042.29751376 -263.11151988 1043.7669151 -262.97998047 1045.23632812 C-262.72816518 1048.02944233 -262.47162485 1050.82204951 -262.20996094 1053.61425781 C-261.9352819 1056.55724747 -261.67284592 1059.5009058 -261.4140625 1062.4453125 C-261.01677815 1066.71659227 -260.48516721 1070.95730533 -259.875 1075.203125 C-259.73932617 1076.17523926 -259.60365234 1077.14735352 -259.46386719 1078.14892578 C-253.88187659 1116.55833724 -235.75273787 1157.31315841 -204.3125 1181.640625 C-181.65727913 1198.51290048 -156.80235987 1204.64563969 -128.9375 1204.703125 C-127.70684311 1204.70764175 -127.70684311 1204.70764175 -126.45132446 1204.71224976 C-109.68082885 1204.70840057 -94.13114493 1202.29750873 -77.875 1198.203125 C-77.01197266 1197.98994629 -76.14894531 1197.77676758 -75.25976562 1197.55712891 C-70.38369823 1196.32159701 -65.62919838 1194.84171846 -60.875 1193.203125 C-60.02679687 1192.91711426 -59.17859375 1192.63110352 -58.3046875 1192.33642578 C-46.02741979 1188.16691004 -34.19057884 1183.56291275 -22.875 1177.203125 C-21.87412354 1176.64286621 -21.87412354 1176.64286621 -20.85302734 1176.07128906 C-11.25979055 1170.60957899 -3.10216136 1164.36765755 4.72021484 1156.58886719 C5.99318058 1155.3331575 7.3014448 1154.11348225 8.61328125 1152.8984375 C24.26668698 1138.13719479 33.69999362 1117.51914085 40.5 1097.453125 C40.89243896 1096.31431885 41.28487793 1095.1755127 41.68920898 1094.00219727 C48.55539044 1072.8452366 51.34658107 1050.44240982 54.625 1028.515625 C55.0198374 1025.8999808 55.41469441 1023.28433956 55.80957031 1020.66870117 C58.6099011 1002.03184502 61.23045759 983.37949963 63.56445312 964.67871094 C64.048999 960.79699811 64.54526844 956.91687133 65.04434204 953.03700256 C67.70158536 932.36273318 70.11399995 911.66800021 72.37963867 890.94726562 C73.59120715 879.88322395 74.85592882 868.83187411 76.31298828 857.796875 C76.42239746 856.96027344 76.53180664 856.12367188 76.64453125 855.26171875 C76.73839111 854.56361084 76.83225098 853.86550293 76.92895508 853.14624023 C77.12792475 851.17413611 77.125 849.18524094 77.125 847.203125 C77.77984375 847.50089844 78.4346875 847.79867187 79.109375 848.10546875 C82.80128641 849.44928624 86.51524316 850.12005505 90.375 850.765625 C91.08785156 850.89130859 91.80070313 851.01699219 92.53515625 851.14648438 C116.18129537 855.21532453 140.49296913 853.97001435 164.1875 850.953125 C165.00614532 850.85070496 165.82479065 850.74828491 166.66824341 850.64276123 C191.37125246 847.49331171 216.76360817 842.01357434 239.26708984 831.10351562 C241.16500378 830.18373815 243.0755466 829.29473372 244.98828125 828.40625 C261.26709057 820.70118935 276.39775899 810.84819123 290.125 799.203125 C290.65706055 798.75614258 291.18912109 798.30916016 291.73730469 797.84863281 C302.92651884 788.35454701 314.62095574 776.44348524 316.4921875 761.21484375 C316.685369 753.28367002 314.96993243 747.57075048 310.125 741.203125 C301.3306212 732.8973228 291.51937186 731.79895961 279.92236328 731.96240234 C272.67899678 732.21629963 265.64433144 733.61584052 258.55157471 735.02438354 C254.25683602 735.87198915 249.94978463 736.65320382 245.64453125 737.4453125 C244.80384094 737.60118332 243.96315063 737.75705414 243.09698486 737.91764832 C225.67791958 741.14693217 208.8271135 742.48062254 191.125 742.578125 C190.2516803 742.58625214 189.3783606 742.59437927 188.47857666 742.60275269 C173.81504006 742.70515603 159.97043344 741.4355818 146.125 736.203125 C144.949375 735.81125 143.77375 735.419375 142.5625 735.015625 C141.758125 734.7475 140.95375 734.479375 140.125 734.203125 C143.15187791 727.82373929 146.71458719 721.99174266 150.5625 716.078125 C162.26694558 697.86797882 172.98909059 679.12115726 183.47119141 660.18603516 C184.98725772 657.45156539 186.51396862 654.72334356 188.04296875 651.99609375 C203.54538038 624.16610876 217.37093308 595.385531 230.125 566.203125 C230.44577515 565.46918518 230.76655029 564.73524536 231.0970459 563.97906494 C246.2235399 529.28793781 259.5169416 494.00148868 271.2227478 458.01539612 C272.51970301 454.03247248 273.84614739 450.06173519 275.2109375 446.1015625 C279.22389878 434.44203965 282.48503469 422.68586202 285.48583984 410.72705078 C286.32935809 407.39615253 287.22467803 404.08162566 288.125 400.765625 C288.60841554 398.94582518 289.0916631 397.12597805 289.57128906 395.30517578 C289.97245478 393.78223186 290.37572047 392.2598406 290.78027344 390.73779297 C295.05308993 374.56380517 298.42575673 358.26851253 301.45654297 341.82519531 C302.05511835 338.58178248 302.66854929 335.34158121 303.28515625 332.1015625 C306.05588176 317.22862594 307.76876665 302.26708182 309.125 287.203125 C309.22216309 286.18371826 309.31932617 285.16431152 309.41943359 284.11401367 C310.32539563 273.40267973 310.34607943 262.68175944 310.36523438 251.93823242 C310.37490871 248.67145002 310.40601199 245.40530675 310.4375 242.13867188 C310.60071556 209.72890027 305.36961353 177.03655009 283.53564453 151.84179688 C282.15751254 150.24089311 280.82352265 148.61180869 279.49609375 146.96875 C273.27536529 139.36713677 266.48229955 132.35618235 259.5625 125.390625 C258.70027832 124.51913818 257.83805664 123.64765137 256.94970703 122.74975586 C250.98426894 116.81312266 244.7308703 111.41364265 238.125 106.203125 C237.39273193 105.62216064 236.66046387 105.04119629 235.90600586 104.44262695 C205.85011512 80.79015037 173.22998688 63.75129179 137.125 51.203125 C136.23506348 50.89358887 135.34512695 50.58405273 134.42822266 50.26513672 C121.87847693 45.96286269 109.12030912 42.84011615 96.125 40.203125 C95.22330078 40.02007812 94.32160156 39.83703125 93.39257812 39.6484375 C86.66291684 38.31506599 79.91334819 37.19342521 73.125 36.203125 C72.08102051 36.05069336 71.03704102 35.89826172 69.96142578 35.74121094 C13.04539141 27.87138149 -45.27230044 34.10214703 -100.875 47.203125 Z " fill="#010101" transform="translate(848.875,-0.203125)"/>
<path d="M0 0 C3.3584441 0.00537429 6.71675517 0.00001303 10.07519531 -0.00634766 C26.16405258 -0.012875 41.92182378 0.44386258 57.85644531 2.88037109 C59.0145874 3.05665039 60.17272949 3.23292969 61.3659668 3.41455078 C108.73961789 10.86738957 155.40192636 27.885259 193.73144531 57.13037109 C194.58826904 57.77522461 194.58826904 57.77522461 195.46240234 58.43310547 C204.37639389 65.15971986 212.70148862 72.37377463 220.73144531 80.13037109 C221.35229004 80.72930176 221.97313477 81.32823242 222.61279297 81.9453125 C230.52491982 89.61977847 238.03560737 97.35606086 244.73144531 106.13037109 C245.79298828 107.46648437 245.79298828 107.46648437 246.87597656 108.82958984 C255.83231314 120.47781237 259.06931843 132.96005825 261.73144531 147.13037109 C262.07369141 148.88220703 262.07369141 148.88220703 262.42285156 150.66943359 C268.40426132 187.05982863 262.61724147 229.34423775 255.32470703 265.14453125 C254.65948843 268.49252448 254.03917572 271.84725684 253.42285156 275.20458984 C248.98108397 299.19873876 243.52409589 322.93790223 236.24462891 346.24560547 C235.2744059 349.35929679 234.32610233 352.47775393 233.40625 355.60668945 C229.61596936 368.49376404 225.4479215 381.23178239 221.10644531 393.94287109 C220.75762299 394.96606445 220.40880066 395.98925781 220.04940796 397.04345703 C214.05413859 414.59534425 207.72894778 431.95045639 200.73144531 449.13037109 C200.3553009 450.05674377 200.3553009 450.05674377 199.97155762 451.00183105 C184.125516 490.00458214 166.7679712 528.73819843 146.19238281 565.48925781 C144.66452124 568.25135783 143.17796662 571.03257825 141.70019531 573.82177734 C133.89183034 588.52868843 125.43023787 602.74051674 116.68554688 616.90185547 C115.33665993 619.1304513 114.02065707 621.35878658 112.73828125 623.62451172 C112.11469727 624.72472656 111.49111328 625.82494141 110.84863281 626.95849609 C110.29546387 627.95268555 109.74229492 628.946875 109.17236328 629.97119141 C108.69686035 630.6837207 108.22135742 631.39625 107.73144531 632.13037109 C105.73144531 632.13037109 105.73144531 632.13037109 103.54394531 630.00537109 C101.73144531 627.13037109 101.73144531 627.13037109 101.80175781 624.59912109 C103.1318922 619.63626675 105.47290112 615.32262441 107.79394531 610.75537109 C117.17201798 591.63553319 123.01663577 572.25117716 125.73144531 551.13037109 C125.8170018 550.47091492 125.90255829 549.81145874 125.9907074 549.13201904 C126.64626054 543.74171224 126.89104006 538.44040826 126.89941406 533.01318359 C126.90364883 532.16719101 126.90788361 531.32119843 126.9122467 530.4495697 C126.92209469 527.71811903 126.92216944 524.98683635 126.91894531 522.25537109 C126.91803894 520.84528275 126.91803894 520.84528275 126.91711426 519.40670776 C126.8743479 494.86324875 124.61729491 470.75165613 121.73144531 446.39990234 C121.60968933 445.36505203 121.60968933 445.36505203 121.48547363 444.30929565 C121.08030087 440.90389359 120.65013425 437.50480754 120.16992188 434.10913086 C118.83418745 424.51578233 118.40723333 415.12417371 118.48144531 405.44287109 C118.48487946 404.70037109 118.4883136 403.95787109 118.49185181 403.19287109 C118.60511773 382.18330734 121.37138741 361.83062856 124.51269531 341.09912109 C124.66754143 340.07606873 124.66754143 340.07606873 124.82551575 339.03234863 C125.3025109 335.89598096 125.79104757 332.76207024 126.29785156 329.63037109 C128.24356679 317.52369855 128.91393593 305.50288669 129.29394531 293.25537109 C129.33712891 291.99595703 129.3803125 290.73654297 129.42480469 289.43896484 C129.54683197 285.6696777 129.64322137 281.90058924 129.73144531 278.13037109 C129.76931152 276.90616455 129.80717773 275.68195801 129.84619141 274.4206543 C129.98435116 267.18294495 129.42565446 260.96306788 127.23144531 254.06787109 C126.96227295 253.18139893 126.69310059 252.29492676 126.41577148 251.3815918 C113.24065779 208.99908727 91.35744722 169.49511769 64.73144531 134.13037109 C64.28462402 133.53192383 63.83780273 132.93347656 63.37744141 132.31689453 C54.45245955 120.38315034 44.77786025 109.12802466 34.73144531 98.13037109 C33.85230469 97.14681641 32.97316406 96.16326172 32.06738281 95.14990234 C20.93831857 82.78088408 8.83189677 71.39324098 -4.26855469 61.13037109 C-5.61647744 60.0525793 -6.96410993 58.97442445 -8.31152344 57.89599609 C-18.59948067 49.71812797 -29.17747585 42.17912555 -40.26855469 35.13037109 C-41.19667969 34.53796631 -41.19667969 34.53796631 -42.14355469 33.93359375 C-56.46995882 24.86570254 -71.68355514 16.79897582 -87.26855469 10.13037109 C-86.93855469 9.47037109 -86.60855469 8.81037109 -86.26855469 8.13037109 C-76.30290164 5.34427454 -65.61694213 4.41165469 -55.39355469 3.00537109 C-54.17772705 2.83473145 -52.96189941 2.6640918 -51.70922852 2.48828125 C-34.49524753 0.1946053 -17.34443031 -0.0329742 0 0 Z " fill="#336791" transform="translate(861.2685546875,67.86962890625)"/>
<path d="M0 0 C12.62795041 10.80661141 17.22495901 25.64450204 20.6875 41.3125 C20.85636719 42.06096191 21.02523437 42.80942383 21.19921875 43.58056641 C24.83921826 59.79293263 27.37158356 76.06411598 29.3125 92.5625 C29.43568604 93.602854 29.55887207 94.64320801 29.68579102 95.71508789 C31.3487511 110.36913349 31.8740316 124.8924079 31.87280273 139.62646484 C31.87498623 142.54409456 31.89320879 145.46134306 31.91210938 148.37890625 C32.04184283 191.72612516 19.78279838 230.63115289 2.2109375 269.859375 C-9.03323176 295.05819823 -20.67014012 322.23381333 -26.3125 349.3125 C-58.88952039 350.56013057 -87.98412382 336.46485142 -111.66357422 314.85058594 C-136.83927127 291.36718478 -153.7160836 255.64034113 -155.47216797 221.17919922 C-155.92164397 208.18542615 -155.5232324 195.45209836 -153.61465454 182.59077454 C-149.50038314 154.78884198 -148.87634922 127.14045042 -149.04821777 99.09063721 C-149.06734051 95.37093871 -149.07137403 91.65129018 -149.07494354 87.93154907 C-149.08016416 83.37101153 -149.0944898 78.81051451 -149.109375 74.25 C-149.11150497 73.37243042 -149.11363495 72.49486084 -149.11582947 71.59069824 C-149.14202148 63.07972879 -149.23356936 54.60741156 -149.79882812 46.11328125 C-149.87514465 44.90357666 -149.95146118 43.69387207 -150.03009033 42.44750977 C-150.18108967 40.27740788 -150.36319224 38.10911478 -150.58465576 35.94506836 C-151.05577664 29.31426684 -151.05577664 29.31426684 -148.91040039 26.42279053 C-147.12511117 24.84616914 -145.33603925 23.56428048 -143.3125 22.3125 C-142.14557617 21.5086084 -142.14557617 21.5086084 -140.95507812 20.68847656 C-138.58128859 19.29955716 -136.20641513 17.91657448 -133.8125 16.5625 C-132.90395264 16.0473584 -131.99540527 15.5322168 -131.05932617 15.00146484 C-107.66950931 2.01976709 -83.49047685 -5.78539549 -57.3125 -10.6875 C-56.26320313 -10.89246094 -55.21390625 -11.09742188 -54.1328125 -11.30859375 C-35.84461878 -13.76559485 -15.05115552 -11.22612502 0 0 Z " fill="#336791" transform="translate(534.3125,372.6875)"/>
<path d="M0 0 C0.96378571 -0.0033284 1.92757141 -0.0066568 2.92056274 -0.01008606 C4.94931566 -0.01512413 6.97807677 -0.01749536 9.00683594 -0.01733398 C12.08542727 -0.01951979 15.16365942 -0.03770719 18.2421875 -0.05664062 C20.22395712 -0.05957547 22.20572843 -0.06155966 24.1875 -0.0625 C25.09511078 -0.06968552 26.00272156 -0.07687103 26.93783569 -0.08427429 C33.07725109 -0.06267132 38.75404211 0.7565183 44.7265625 2.16796875 C44.85698035 9.65008916 44.60953033 16.87972486 43.6015625 24.29296875 C43.47539551 25.26435791 43.34922852 26.23574707 43.21923828 27.23657227 C41.52497587 40.05892715 39.65433403 52.85921485 37.79638672 65.65869141 C37.66772217 66.54803879 37.53905762 67.43738617 37.40649414 68.35368347 C37.16494714 70.02193129 36.92220398 71.69000658 36.67797852 73.35786438 C35.4020914 82.17757363 34.56063758 90.79961722 34.48828125 99.71875 C34.47372643 101.21745132 34.47372643 101.21745132 34.45887756 102.74642944 C34.43392299 105.99115057 34.42132951 109.23566107 34.4140625 112.48046875 C34.41144409 113.59676666 34.40882568 114.71306458 34.40612793 115.8631897 C34.40148899 134.40486918 35.68291966 152.39626592 38.14453125 170.75146484 C43.99079007 214.63156755 49.28762646 263.04584084 28.7265625 304.16796875 C28.0665625 304.16796875 27.4065625 304.16796875 26.7265625 304.16796875 C26.32453613 303.32314941 25.92250977 302.47833008 25.50830078 301.60791016 C18.40876511 286.72217901 11.33303801 271.89273003 3.11083984 257.58642578 C-56.69846581 153.09418914 -56.69846581 153.09418914 -66.85253906 100.25683594 C-67.31216625 97.97576274 -67.84887635 95.71995098 -68.390625 93.45703125 C-70.74040968 83.17410186 -71.65774872 73.21964382 -71.7109375 62.66796875 C-71.72092773 61.52352295 -71.73091797 60.37907715 -71.74121094 59.19995117 C-71.58107665 43.38440309 -67.70968108 30.05959153 -56.71875 18.48828125 C-41.32418262 3.88065661 -20.5829058 0.02512467 0 0 Z " fill="#346791" transform="translate(912.2734375,355.83203125)"/>
<path d="M0 0 C9.60758352 4.25373927 14.82404128 11.2974435 18.984375 20.86328125 C21.40508864 28.02265601 22.59704767 36.21076441 19.4375 43.3125 C16.26118754 48.79275742 11.99722778 53.53446326 7.875 58.3125 C7.1840625 59.15039062 6.493125 59.98828125 5.78125 60.8515625 C-14.26897005 84.41805249 -45.55896 98.91552513 -76.21115112 101.48754883 C-81.09910956 101.75267998 -85.98168387 101.74217973 -90.875 101.6875 C-91.61379395 101.68317963 -92.35258789 101.67885925 -93.11376953 101.67440796 C-104.97712074 101.59337327 -116.52647428 100.94386097 -128.125 98.3125 C-128.89682617 98.14089355 -129.66865234 97.96928711 -130.46386719 97.79248047 C-141.1489489 95.33126053 -150.54578812 91.65652978 -160.125 86.3125 C-159.125 84.3125 -159.125 84.3125 -156.921875 83.41796875 C-145.01555339 79.83080775 -132.91219619 77.01736919 -120.76953125 74.3515625 C-86.01439403 66.641956 -61.79158064 54.11298944 -39.8828125 25.8359375 C-15.34772875 -5.70917018 -15.34772875 -5.70917018 0 0 Z " fill="#346891" transform="translate(561.125,765.6875)"/>
<path d="M0 0 C15.63428391 9.11260017 33.42634874 12.86907485 51.4375 13.1875 C52.42508301 13.20796387 53.41266602 13.22842773 54.43017578 13.24951172 C85.94319852 13.80968151 116.52460437 10.01444044 147.4375 4.1875 C128.15186944 24.75883926 100.21082224 37.7165641 73.4375 45.1875 C72.78281738 45.37650879 72.12813477 45.56551758 71.45361328 45.76025391 C53.39446583 50.93269277 34.21622158 53.89371313 15.4375 54.1875 C14.25140137 54.20796387 13.06530273 54.22842773 11.84326172 54.24951172 C8.37458695 54.3039393 4.90606406 54.33803766 1.43704224 54.36071777 C0.048574 54.37005175 -1.3398802 54.3819069 -2.728302 54.39660645 C-17.20144882 54.52983483 -31.39222475 53.77263762 -44.5625 47.1875 C-45.58302978 18.75440632 -45.58302978 18.75440632 -36.5625 8.1875 C-26.53913925 -2.17696989 -12.61287279 -7.61441259 0 0 Z " fill="#346891" transform="translate(973.5625,763.8125)"/>
<path d="M0 0 C0.88816406 0.00821777 1.77632813 0.01643555 2.69140625 0.02490234 C15.2301294 0.23831765 27.73618821 2.18970219 37 11.5625 C39.53664058 14.95469391 40.01827125 17.93405467 39.69921875 22.1171875 C38.38409679 28.36115785 33.31023637 32.75508967 28.25 36.25 C25.31392218 37.76617133 22.31898217 39.03115779 19.25 40.25 C18.26 40.745 18.26 40.745 17.25 41.25 C9.52041884 41.77747798 2.15108142 42.08554841 -4.75 38.25 C-5.47574219 37.8478125 -6.20148438 37.445625 -6.94921875 37.03125 C-14.20246306 32.59802767 -21.0911957 26.53319801 -23.75 18.25 C-24.50383339 14.04054099 -24.94758426 9.98259972 -22.4296875 6.33984375 C-15.93963711 0.41730898 -8.41778876 -0.09392011 0 0 Z " fill="#FDFDFE" transform="translate(497.75,380.75)"/>
<path d="M0 0 C2.6010136 2.83852263 2.98758092 3.63984662 3.125 7.625 C1.74825945 15.40720711 -3.70251088 21.37313207 -9.875 25.9375 C-17.49047763 30.81508688 -24.91643497 33.20367734 -34 32 C-42.28241818 30.06183662 -48.32418943 25.19973155 -54 19 C-55.86574315 15.82649297 -56.61608982 13.69653894 -56 10 C-51.66600429 3.06560687 -45.27919987 0.22123284 -37.578125 -1.9765625 C-25.77424781 -4.64115081 -10.71121706 -7.06809435 0 0 Z " fill="#FCFCFD" transform="translate(922,376)"/>
</svg>
